<svg id="visual" viewBox="0 0 960 540" width="960" height="540" xmlns="http://www.w3.org/2000/svg" xmlns:xlink="http://www.w3.org/1999/xlink" version="1.1"><path d="M0 87L16 86.8C32 86.7 64 86.3 96 84.7C128 83 160 80 192 82.3C224 84.7 256 92.3 288 91.3C320 90.3 352 80.7 384 77.7C416 74.7 448 78.3 480 84.2C512 90 544 98 576 100C608 102 640 98 672 94.2C704 90.3 736 86.7 768 86C800 85.3 832 87.7 864 89.3C896 91 928 92 944 92.5L960 93L960 0L944 0C928 0 896 0 864 0C832 0 800 0 768 0C736 0 704 0 672 0C640 0 608 0 576 0C544 0 512 0 480 0C448 0 416 0 384 0C352 0 320 0 288 0C256 0 224 0 192 0C160 0 128 0 96 0C64 0 32 0 16 0L0 0Z" fill="#fa7100"></path><path d="M0 89L16 83C32 77 64 65 96 58.2C128 51.3 160 49.7 192 50.2C224 50.7 256 53.3 288 54.3C320 55.3 352 54.7 384 57.7C416 60.7 448 67.3 480 71.5C512 75.7 544 77.3 576 80.7C608 84 640 89 672 86.2C704 83.3 736 72.7 768 71.2C800 69.7 832 77.3 864 76.8C896 76.3 928 67.7 944 63.3L960 59L960 0L944 0C928 0 896 0 864 0C832 0 800 0 768 0C736 0 704 0 672 0C640 0 608 0 576 0C544 0 512 0 480 0C448 0 416 0 384 0C352 0 320 0 288 0C256 0 224 0 192 0C160 0 128 0 96 0C64 0 32 0 16 0L0 0Z" fill="#e34c1a"></path><path d="M0 52L16 48.3C32 44.7 64 37.3 96 34.5C128 31.7 160 33.3 192 36.3C224 39.3 256 43.7 288 42.3C320 41 352 34 384 33.8C416 33.7 448 40.3 480 44C512 47.7 544 48.3 576 48C608 47.7 640 46.3 672 46.3C704 46.3 736 47.7 768 50C800 52.3 832 55.7 864 56C896 56.3 928 53.7 944 52.3L960 51L960 0L944 0C928 0 896 0 864 0C832 0 800 0 768 0C736 0 704 0 672 0C640 0 608 0 576 0C544 0 512 0 480 0C448 0 416 0 384 0C352 0 320 0 288 0C256 0 224 0 192 0C160 0 128 0 96 0C64 0 32 0 16 0L0 0Z" fill="#c72424"></path></svg>