<svg id="visual" viewBox="0 0 960 540" preserveAspectRatio="none" width="960" height="540" xmlns="http://www.w3.org/2000/svg" xmlns:xlink="http://www.w3.org/1999/xlink" version="1.1"><rect x="0" y="0" width="960" height="540" fill="#1e1e1e"></rect><path d="M0 185L22.8 167C45.7 149 91.3 113 137 107.3C182.7 101.7 228.3 126.3 274 130.8C319.7 135.3 365.3 119.7 411.2 115C457 110.3 503 116.7 548.8 131.5C594.7 146.3 640.3 169.7 686 167.2C731.7 164.7 777.3 136.3 823 125.2C868.7 114 914.3 120 937.2 123L960 126L960 0L937.2 0C914.3 0 868.7 0 823 0C777.3 0 731.7 0 686 0C640.3 0 594.7 0 548.8 0C503 0 457 0 411.2 0C365.3 0 319.7 0 274 0C228.3 0 182.7 0 137 0C91.3 0 45.7 0 22.8 0L0 0Z" fill="#c72424"></path><path d="M0 134L22.8 120.8C45.7 107.7 91.3 81.3 137 71C182.7 60.7 228.3 66.3 274 81.5C319.7 96.7 365.3 121.3 411.2 115.3C457 109.3 503 72.7 548.8 61.2C594.7 49.7 640.3 63.3 686 80.8C731.7 98.3 777.3 119.7 823 119.7C868.7 119.7 914.3 98.3 937.2 87.7L960 77L960 0L937.2 0C914.3 0 868.7 0 823 0C777.3 0 731.7 0 686 0C640.3 0 594.7 0 548.8 0C503 0 457 0 411.2 0C365.3 0 319.7 0 274 0C228.3 0 182.7 0 137 0C91.3 0 45.7 0 22.8 0L0 0Z" fill="#e34c1a"></path><path d="M0 29L22.8 26.7C45.7 24.3 91.3 19.7 137 16.5C182.7 13.3 228.3 11.7 274 15.8C319.7 20 365.3 30 411.2 39.7C457 49.3 503 58.7 548.8 53.8C594.7 49 640.3 30 686 27.8C731.7 25.7 777.3 40.3 823 48.5C868.7 56.7 914.3 58.3 937.2 59.2L960 60L960 0L937.2 0C914.3 0 868.7 0 823 0C777.3 0 731.7 0 686 0C640.3 0 594.7 0 548.8 0C503 0 457 0 411.2 0C365.3 0 319.7 0 274 0C228.3 0 182.7 0 137 0C91.3 0 45.7 0 22.8 0L0 0Z" fill="#fa7100"></path></svg>